<svg width="47" height="46" viewBox="0 0 47 46" fill="none" xmlns="http://www.w3.org/2000/svg">
<ellipse cx="23.5" cy="22.9125" rx="23.5" ry="22.9125" fill="white"/>
<path fill-rule="evenodd" clip-rule="evenodd" d="M30.3121 33.3511C29.4463 33.0228 28.7081 32.5979 28.1266 32.1995C26.8513 32.7159 25.4578 33 24 33C17.9249 33 13 28.0751 13 22C13 15.9249 17.9249 11 24 11C30.0751 11 35 15.9249 35 22C35 24.2788 34.306 26.3983 33.1179 28.1551C33.0425 29.6077 33.8054 30.9202 34.5972 32.0816C35.2907 33.0987 35.1167 33.9184 33.8236 33.9917C33.244 34.0245 31.9903 33.9874 30.3121 33.3511ZM15 22C15 17.0294 19.0294 13 24 13C28.9706 13 33 17.0294 33 22C33 23.9503 32.3808 25.7531 31.328 27.2262C30.8622 27.8782 31.1018 29.0998 31.2616 29.8011C31.4167 30.4818 31.7532 31.2051 32.0856 31.8123C31.7674 31.7356 31.4111 31.6288 31.0212 31.481C30.1239 31.1407 29.3824 30.6624 28.8594 30.261C28.5626 30.0332 28.1635 29.9902 27.825 30.1494C26.6654 30.6947 25.3697 31 24 31C19.0294 31 15 26.9706 15 22ZM19 23.5C19.8284 23.5 20.5 22.8284 20.5 22C20.5 21.1716 19.8284 20.5 19 20.5C18.1716 20.5 17.5 21.1716 17.5 22C17.5 22.8284 18.1716 23.5 19 23.5ZM25.5 22C25.5 22.8284 24.8284 23.5 24 23.5C23.1716 23.5 22.5 22.8284 22.5 22C22.5 21.1716 23.1716 20.5 24 20.5C24.8284 20.5 25.5 21.1716 25.5 22ZM29 23.5C29.8284 23.5 30.5 22.8284 30.5 22C30.5 21.1716 29.8284 20.5 29 20.5C28.1716 20.5 27.5 21.1716 27.5 22C27.5 22.8284 28.1716 23.5 29 23.5Z" fill="black"/>
</svg>
